<svg xmlns="http://www.w3.org/2000/svg" viewBox="0 0 202.21 202.21"><defs><style>.cls-1{fill:#fff;}</style></defs><title>public_art_company_crest</title><g id="Layer_2" data-name="Layer 2"><g id="Layer_1-2" data-name="Layer 1"><path class="cls-1" d="M101.09,202.21A101.09,101.09,0,0,1,51.77,12.91,101.08,101.08,0,0,1,198.4,128.6h0A101.27,101.27,0,0,1,101.09,202.21ZM101,.5A100.61,100.61,0,0,0,13.35,150.23,100.58,100.58,0,1,0,128.46,4.33,101.15,101.15,0,0,0,101,.5Z"/><path class="cls-1" d="M93.39,13.17l0-.48.55,0a.52.52,0,0,0,.56-.63l-.22-3.89c0-.41-.22-.58-.63-.56l-.55,0,0-.48,3.47-.19c1.2-.07,2.15.48,2.21,1.55s-.82,1.71-2,1.78l-1.48.08.1,1.63c0,.41.21.58.62.56l.73,0,0,.48Zm3.19-3.36a1.07,1.07,0,0,0,1.16-1.27c0-.79-.44-1.17-1.29-1.12l-1,.06a.29.29,0,0,0-.32.35l.12,2.06Z"/><path class="cls-1" d="M105.38,12.15h0a1.67,1.67,0,0,1-1.44.9,1.18,1.18,0,0,1-1.16-1.31l.08-2.28c0-.31-.09-.43-.41-.44l-.58,0,0-.45,1.72.07-.12,3.09c0,.55.35.76.8.78a1.14,1.14,0,0,0,1.14-1.21l.07-1.72c0-.31-.09-.43-.41-.44l-.63,0,0-.44,1.77.07-.14,3.62c0,.15.06.22.2.22l.67,0,0,.44L105.35,13Z"/><path class="cls-1" d="M110.6,7.27l-.47-.06.06-.44,1.59.2-.37,3h0A1.5,1.5,0,0,1,113,9.23c1,.12,1.55,1.2,1.4,2.47s-1,2.15-2,2a1.58,1.58,0,0,1-1.33-1.21h0l-.41,1-.35-.05L111,7.75C111,7.44,110.91,7.31,110.6,7.27Zm.65,4c-.12,1,.19,1.75.94,1.85s1.23-.39,1.38-1.56-.21-1.75-1-1.84S111.38,10.31,111.25,11.3Z"/><path class="cls-1" d="M118.89,14.24l.61.12-.09.44-2.34-.47.09-.43.61.12a.19.19,0,0,0,.25-.17L119,9c.06-.31,0-.44-.34-.51l-.44-.09.08-.43,1.57.31L118.72,14C118.69,14.13,118.74,14.21,118.89,14.24Z"/><path class="cls-1" d="M124.14,15.49l.6.15-.11.43-2.31-.6.11-.43.6.16c.15,0,.23,0,.26-.16l.7-2.65c.08-.3,0-.45-.31-.53l-.48-.12.12-.43,1.58.41-.92,3.5A.2.2,0,0,0,124.14,15.49Zm1-6.06a.57.57,0,1,1-.69.41A.55.55,0,0,1,125.1,9.43Z"/><path class="cls-1" d="M130.83,13.85c-.73-.24-1.48.07-1.89,1.28-.35,1-.05,1.8.8,2.09a1.2,1.2,0,0,0,1.44-.45l.41.14a1.78,1.78,0,0,1-2.15.79,2.09,2.09,0,0,1-1.23-2.82A2.14,2.14,0,0,1,131,13.41a1.52,1.52,0,0,1,1.17,1.74.54.54,0,0,1-.72.4.46.46,0,0,1-.32-.6c.12-.37.49-.33.51-.39S131.4,14.05,130.83,13.85Z"/><path class="cls-1" d="M137.86,20.83l.22-.43.23.12a.73.73,0,0,0,1-.14l3.95-3.63.42.21-.48,5.37a.7.7,0,0,0,.44.85l.25.12-.22.43-2.5-1.26.22-.43.4.21c.28.14.47.1.55-.07a.76.76,0,0,0,.06-.25l.13-1.26-1.86-.93-.92.86a.78.78,0,0,0-.17.21c-.08.17,0,.31.24.44l.43.22-.21.43Zm4.93-3.12L141,19.42l1.57.79Z"/><path class="cls-1" d="M148.92,23.16h0a1.71,1.71,0,0,1,1.85-.28.64.64,0,0,1,.26.93.52.52,0,0,1-.75.22.42.42,0,0,1-.17-.61.47.47,0,0,1,.25-.2s0,0,0-.05c-.48-.3-1.53.16-1.94.83l-.81,1.31a.18.18,0,0,0,.07.29l.65.4-.23.38L146,25.08l.23-.38.5.31a.19.19,0,0,0,.3-.07l1.44-2.34c.17-.26.13-.42-.14-.59l-.35-.22.23-.38,1.33.82Z"/><path class="cls-1" d="M156.32,27.4l-1.27-.93-1.49,2.05c-.35.48-.28.85.06,1.1s.71.22,1.12-.35h0l.36.26v0c-.57.78-1.25,1-1.91.48a1.19,1.19,0,0,1-.26-1.84l1.54-2.13-.72-.53.21-.29c.67.3,1,.27,1.75-.56l.41.29-.83,1.13,1.3.95Z"/><path class="cls-1" d="M51.31,182.81a2.93,2.93,0,0,1-.92-4.24,3,3,0,0,1,4.15-1.16,2.32,2.32,0,0,1,1.16,1.71l.61-.54.29.18-1.2,2-.34-.2a1.92,1.92,0,0,0-.72-2.6c-1.14-.7-2.18-.29-3.08,1.17s-.71,2.63.39,3.29a2,2,0,0,0,2.67-.56l.37.23A2.51,2.51,0,0,1,51.31,182.81Z"/><path class="cls-1" d="M61.56,185.76a2.07,2.07,0,1,1-.84-2.95A2.09,2.09,0,0,1,61.56,185.76Zm-1.08-2.47c-.72-.36-1.39-.1-1.93,1s-.33,1.78.4,2.13,1.39.1,1.92-1S61.2,183.64,60.48,183.29Z"/><path class="cls-1" d="M64,189.22l.16-.42.55.21a.19.19,0,0,0,.28-.13l1-2.57c.11-.29,0-.44-.25-.55l-.39-.15.16-.42,1.45.55-.28.77h0a1.64,1.64,0,0,1,1.6-.42,1.14,1.14,0,0,1,.74,1.31h0a1.63,1.63,0,0,1,1.63-.41,1.15,1.15,0,0,1,.65,1.59l-.87,2.33a.19.19,0,0,0,.12.28l.56.21-.16.41-2-.76.15-.42.43.16a.18.18,0,0,0,.27-.13l.86-2.27a.7.7,0,0,0-.48-1,1.13,1.13,0,0,0-1.42.8L68,190a.18.18,0,0,0,.13.27l.42.16-.16.42-1.91-.72.16-.42.42.16a.19.19,0,0,0,.28-.12l.85-2.28a.68.68,0,0,0-.48-1,1.12,1.12,0,0,0-1.42.8l-.68,1.8c0,.14,0,.22.13.28l.42.16L66,190Z"/><path class="cls-1" d="M75.55,194.31l.74.19-.11.43-2.41-.64.11-.43.57.15a.19.19,0,0,0,.27-.15l1.1-4.14c.08-.3,0-.44-.3-.53l-.4-.1.11-.43,1.51.4-.21.78h0a1.54,1.54,0,0,1,1.6-.54c.93.25,1.37,1.4,1,2.63s-1.28,2-2.21,1.76a1.52,1.52,0,0,1-1.12-1.27h0l-.44,1.63A.19.19,0,0,0,75.55,194.31Zm2.89-2.58c.31-1.14,0-1.76-.69-2s-1.3.39-1.56,1.36,0,1.76.68,2S78.14,192.87,78.44,191.73Z"/><path class="cls-1" d="M84,191.85a.42.42,0,0,1-.54.35.48.48,0,0,1-.39-.62c.12-.69.88-1,1.82-.79,1.14.21,1.45.68,1.34,1.27l-.45,2.51c-.06.31,0,.45.23.48s.39,0,.48-.54v0l.36.06v0c-.16.89-.59,1.08-1,1a.84.84,0,0,1-.67-1.06h0a1.64,1.64,0,0,1-1.6.64,1.11,1.11,0,0,1-1-1.39c.14-.75.74-1,1.68-1l1.22-.06.13-.74c0-.3-.09-.59-.74-.71s-.86,0-.89.17S84.05,191.6,84,191.85Zm.37,1.26c-.58.06-1,.2-1.09.73a.64.64,0,0,0,.53.82,1.23,1.23,0,0,0,1.4-.9l.14-.75Z"/><path class="cls-1" d="M92.93,192.46a1.15,1.15,0,0,0-1.21,1.15l-.18,1.92c0,.14,0,.22.2.23l.49.05,0,.44L90,196l0-.44.59.06c.15,0,.22,0,.24-.2l.25-2.74c0-.3-.07-.43-.39-.46l-.42,0,0-.45,1.55.15-.08.82h0a1.62,1.62,0,0,1,1.48-.82,1.19,1.19,0,0,1,1.09,1.37l-.23,2.48a.19.19,0,0,0,.19.24l.59.05,0,.44-2.22-.2,0-.45.49.05a.19.19,0,0,0,.23-.19l.23-2.43C93.74,192.73,93.38,192.51,92.93,192.46Z"/><path class="cls-1" d="M99.23,198.34c-.61,0-.91-.38-.9-.77a.49.49,0,0,1,.5-.54.41.41,0,0,1,.43.43c0,.26-.15.32-.15.39s0,.08.15.08c.54,0,.85-.44,1.12-1.12v0l-1.46-3.71c-.07-.17-.13-.23-.25-.23h-.5v-.46h2.23v.46h-.59c-.09,0-.14,0-.14.1a.24.24,0,0,0,0,.13l1.07,2.76,1.1-2.75a.74.74,0,0,0,0-.12c0-.07,0-.11-.12-.11h-.68v-.47l2.07,0v.46h-.57c-.1,0-.15.06-.22.22L100.75,197C100.41,197.86,100,198.34,99.23,198.34Z"/><path class="cls-1" d="M78,182H78a.25.25,0,0,1-.17-.31l45.8-162.12a.24.24,0,0,1,.31-.17.25.25,0,0,1,.17.31L78.27,181.85A.25.25,0,0,1,78,182Z"/><path class="cls-1" d="M182,123.87h-.07L19.8,78.07a.25.25,0,0,1,.14-.49l162.12,45.8a.25.25,0,0,1-.07.49Z"/><path class="cls-1" d="M101.2,184.91A84.48,84.48,0,0,1,19.88,77.58,84.36,84.36,0,0,1,174.69,59.32a83.79,83.79,0,0,1,7.57,64.12l-.24-.06.24.06a84.5,84.5,0,0,1-81.06,61.47Zm-.26-168.3A83.89,83.89,0,0,0,78.27,181.22,83.87,83.87,0,0,0,123.87,19.8,84.58,84.58,0,0,0,100.94,16.61Z"/></g></g></svg>