<svg xmlns="http://www.w3.org/2000/svg" viewBox="0 0 450.45 23.02"><defs><style>.cls-1{fill:#fff;}</style></defs><title>public_art_company_light</title><g id="Layer_2" data-name="Layer 2"><g id="Layer_1-2" data-name="Layer 1"><path class="cls-1" d="M21.85,7.68A6.59,6.59,0,0,1,19.65,13q-2.19,1.85-6.85,1.84H7.14v7.57H0V.6H12.8A14.55,14.55,0,0,1,16.39,1a8.62,8.62,0,0,1,2.86,1.29,6.07,6.07,0,0,1,1.9,2.21A6.72,6.72,0,0,1,21.85,7.68Zm-7.26,0a2.44,2.44,0,0,0-1-2.19,4.88,4.88,0,0,0-2.67-.65H7.14v5.81h3.78a4.46,4.46,0,0,0,2.74-.71A2.65,2.65,0,0,0,14.59,7.68Z"/><path class="cls-1" d="M48.31,17.52a8,8,0,0,1-2.45,3.19A10,10,0,0,1,42,22.48,21.32,21.32,0,0,1,37,23a24.27,24.27,0,0,1-5-.47A10.25,10.25,0,0,1,28.16,21a7.18,7.18,0,0,1-2.44-3,11.42,11.42,0,0,1-.85-4.68V.6h7.06V13.42a9.11,9.11,0,0,0,.33,2.65,4.3,4.3,0,0,0,1,1.75,3.73,3.73,0,0,0,1.61.95,7.59,7.59,0,0,0,2.19.29q2.82,0,4-1.53a7.76,7.76,0,0,0,1.15-4.68V.6h7V12.7A11.94,11.94,0,0,1,48.31,17.52Z"/><path class="cls-1" d="M76.8,16.31a5.32,5.32,0,0,1-2.22,4.46q-2.22,1.68-6.86,1.68H54V.6H67.12a16.65,16.65,0,0,1,4,.42,8.53,8.53,0,0,1,2.71,1.15,4.5,4.5,0,0,1,1.53,1.74,5.09,5.09,0,0,1,.48,2.2,5.08,5.08,0,0,1-.36,2,4.11,4.11,0,0,1-1,1.42,4.94,4.94,0,0,1-1.53,1,13.5,13.5,0,0,1-2,.65,16.72,16.72,0,0,1,2.09.5,6.14,6.14,0,0,1,1.85.91,4.7,4.7,0,0,1,1.33,1.5A4.5,4.5,0,0,1,76.8,16.31ZM68.63,7a2,2,0,0,0-.89-1.84,5.54,5.54,0,0,0-2.83-.56h-4V9.47h4a5.23,5.23,0,0,0,2.87-.59A2.11,2.11,0,0,0,68.63,7Zm.91,8.83a2.1,2.1,0,0,0-1.12-2,3.53,3.53,0,0,0-1.2-.39,9.32,9.32,0,0,0-1.43-.11H60.91v5.08h4.88a5.56,5.56,0,0,0,2.75-.56A2.09,2.09,0,0,0,69.54,15.85Z"/><path class="cls-1" d="M80.52,22.45V.6h7.15V17.79H99.41v4.66Z"/><path class="cls-1" d="M102.49,22.45V.6h7.15V22.45Z"/><path class="cls-1" d="M134.74,21.31a11.18,11.18,0,0,1-3.85,1.34,26.43,26.43,0,0,1-4.52.37,21.3,21.3,0,0,1-5.57-.65,10.34,10.34,0,0,1-4.07-2,8.74,8.74,0,0,1-2.5-3.56,14.42,14.42,0,0,1-.84-5.22,13.21,13.21,0,0,1,.84-4.84,9.57,9.57,0,0,1,2.5-3.63A11.14,11.14,0,0,1,120.85.81a18.87,18.87,0,0,1,5.7-.79,22.23,22.23,0,0,1,4.33.42,11.9,11.9,0,0,1,3.8,1.35A9.52,9.52,0,0,1,139,8.07h-7.35a4.26,4.26,0,0,0-2-2.72,5.38,5.38,0,0,0-3.13-.82,6.06,6.06,0,0,0-2.66.53,4.76,4.76,0,0,0-1.79,1.47,6.18,6.18,0,0,0-1,2.2,11.27,11.27,0,0,0-.32,2.72,14.14,14.14,0,0,0,.27,2.87,5.91,5.91,0,0,0,.93,2.23A4.2,4.2,0,0,0,123.68,18a6.3,6.3,0,0,0,2.69.51,5.74,5.74,0,0,0,3.3-.86,4.15,4.15,0,0,0,2-2.86h7.38C139.06,16.41,137.59,19.6,134.74,21.31Z"/><path class="cls-1" d="M266.9,21.31a11.18,11.18,0,0,1-3.85,1.34,26.43,26.43,0,0,1-4.52.37,21.3,21.3,0,0,1-5.57-.65,10.34,10.34,0,0,1-4.07-2,8.63,8.63,0,0,1-2.49-3.56,14.2,14.2,0,0,1-.85-5.22,13,13,0,0,1,.85-4.84,9.43,9.43,0,0,1,2.49-3.63A11.14,11.14,0,0,1,253,.81a18.87,18.87,0,0,1,5.7-.79A22.23,22.23,0,0,1,263,.44a11.9,11.9,0,0,1,3.8,1.35,9.48,9.48,0,0,1,4.31,6.28H263.8a4.26,4.26,0,0,0-2-2.72,5.38,5.38,0,0,0-3.13-.82,6.06,6.06,0,0,0-2.66.53,4.76,4.76,0,0,0-1.79,1.47,6.18,6.18,0,0,0-1,2.2,11.27,11.27,0,0,0-.32,2.72,14.14,14.14,0,0,0,.27,2.87,6.07,6.07,0,0,0,.93,2.23A4.2,4.2,0,0,0,255.84,18a6.3,6.3,0,0,0,2.69.51,5.74,5.74,0,0,0,3.3-.86,4.15,4.15,0,0,0,2-2.86h7.38C271.22,16.41,269.75,19.6,266.9,21.31Z"/><path class="cls-1" d="M174.36,22.45l-1.93-4.15H160.11l-2,4.15h-7.2L162.35.6H171l11.29,21.85Zm-8-17.25-4.23,8.87h8.32Z"/><path class="cls-1" d="M203.34,22.45a2.85,2.85,0,0,1-2.14-2.65l-.26-1.8c-.06-.42-.12-.8-.17-1.12s-.08-.56-.1-.73a2.87,2.87,0,0,0-.35-.9,1.59,1.59,0,0,0-.66-.59,3.56,3.56,0,0,0-1.15-.34,22.82,22.82,0,0,0-2.34-.1h-4.41v8.23h-7.14V.6h14.5a11.54,11.54,0,0,1,6.35,1.48,5.9,5.9,0,0,1,2.27,5c0,3-2,4.59-6.53,4.59-.14,0-.11.22,0,.23a10.06,10.06,0,0,1,4.5,1,3.2,3.2,0,0,1,.94,1,5.47,5.47,0,0,1,.53,1.53c.06.28.12.64.19,1.09s.15.91.24,1.4.23,1.61.29,1.91a2.13,2.13,0,0,0,1.81,1.65s-.42,1-.4,1ZM200.11,7.38a2.09,2.09,0,0,0-1-2,5.41,5.41,0,0,0-2.75-.56h-4.65v5.23h4.65a4.53,4.53,0,0,0,2.88-.71A2.46,2.46,0,0,0,200.11,7.38Z"/><path class="cls-1" d="M224.2,5.23V22.45h-7.14V5.23H209V.6h23.33V5.23Z"/><path class="cls-1" d="M300.64,11.48a12.34,12.34,0,0,1-.88,4.8,9.59,9.59,0,0,1-2.58,3.61A11.44,11.44,0,0,1,293,22.17a19.38,19.38,0,0,1-5.74.79,20,20,0,0,1-6.21-.84,10.58,10.58,0,0,1-4.15-2.35,8.94,8.94,0,0,1-2.33-3.64,14.35,14.35,0,0,1-.72-4.65,12.66,12.66,0,0,1,.87-4.82,9.65,9.65,0,0,1,2.58-3.61,11.59,11.59,0,0,1,4.2-2.26A19,19,0,0,1,287.23,0a19.86,19.86,0,0,1,6.1.83,11,11,0,0,1,4.17,2.36,9.08,9.08,0,0,1,2.38,3.64A13.58,13.58,0,0,1,300.64,11.48Zm-7.31,0A11.73,11.73,0,0,0,293,8.67a5.68,5.68,0,0,0-1-2.2A4.91,4.91,0,0,0,290.08,5a6.91,6.91,0,0,0-2.85-.53,6.71,6.71,0,0,0-2.77.53,5,5,0,0,0-1.9,1.46,6,6,0,0,0-1.09,2.21,10.64,10.64,0,0,0-.34,2.78,11.6,11.6,0,0,0,.31,2.78,6,6,0,0,0,1,2.21,4.79,4.79,0,0,0,1.87,1.46,7,7,0,0,0,2.89.52,6.83,6.83,0,0,0,2.82-.52,4.86,4.86,0,0,0,1.89-1.46A6.22,6.22,0,0,0,293,14.26,11.1,11.1,0,0,0,293.33,11.48Z"/><path class="cls-1" d="M331.38,22.38V4.65l-6.82,17.73h-7.34L310.39,4.65V22.38h-6V.57h10.88l6.07,16.07L327.22.57h10.87V22.38Z"/><path class="cls-1" d="M364.85,7.64A6.6,6.6,0,0,1,362.66,13q-2.19,1.85-6.84,1.84h-5.65v7.55H343V.57h12.78A14.46,14.46,0,0,1,359.4,1a8.46,8.46,0,0,1,2.85,1.28,6.1,6.1,0,0,1,1.91,2.21A6.77,6.77,0,0,1,364.85,7.64Zm-7.25,0a2.4,2.4,0,0,0-1-2.18A4.73,4.73,0,0,0,354,4.8h-3.78v5.8H354a4.45,4.45,0,0,0,2.73-.7A2.67,2.67,0,0,0,357.6,7.64Z"/><path class="cls-1" d="M385.6,22.38l-1.93-4.14h-12.3l-2,4.14h-7.19L373.61.57h8.67l11.26,21.81Zm-8-17.22L373.37,14h8.3Z"/><path class="cls-1" d="M411.39,22.38,401.91,6.31V22.38h-6.07V.57h9.72l9.49,16.07V.57h6.07V22.38Z"/><path class="cls-1" d="M440.42,15v7.37h-7.13V15L423.23.57h8.64L437.31,10l5.5-9.46h7.64Z"/></g></g></svg>