<svg xmlns="http://www.w3.org/2000/svg" viewBox="0 0 397.96 29.53"><defs><style>.cls-1{fill:#40404b;}</style></defs><title>Asset 2</title><g id="Layer_2" data-name="Layer 2"><g id="Layer_1-2" data-name="Layer 1"><path class="cls-1" d="M28.06,9.83a8.48,8.48,0,0,1-2.82,6.88q-2.82,2.37-8.8,2.37H9.17V28.8H0V.74H16.44a18.54,18.54,0,0,1,4.6.54,11.37,11.37,0,0,1,3.68,1.65,7.89,7.89,0,0,1,2.44,2.84A8.68,8.68,0,0,1,28.06,9.83Zm-9.33,0A3.13,3.13,0,0,0,17.45,7,6.18,6.18,0,0,0,14,6.18H9.17v7.46H14a5.78,5.78,0,0,0,3.52-.9A3.43,3.43,0,0,0,18.73,9.83Z"/><path class="cls-1" d="M62,22.46a10.27,10.27,0,0,1-3.15,4.1A12.86,12.86,0,0,1,54,28.83a27,27,0,0,1-6.42.7,32,32,0,0,1-6.47-.6,13.16,13.16,0,0,1-4.93-2A9.12,9.12,0,0,1,33,23.1a14.56,14.56,0,0,1-1.09-6V.74H41V16.5a11.88,11.88,0,0,0,.42,3.41,5.49,5.49,0,0,0,1.27,2.24,4.61,4.61,0,0,0,2.06,1.22,9.57,9.57,0,0,0,2.81.37q3.61,0,5.1-2t1.47-6V.74h9V16.28A15.31,15.31,0,0,1,62,22.46Z"/><path class="cls-1" d="M98.63,20.91a6.85,6.85,0,0,1-2.86,5.73c-1.9,1.44-4.84,2.16-8.8,2.16H69.29V.74h16.9a21.42,21.42,0,0,1,5.17.54,11,11,0,0,1,3.48,1.48A5.75,5.75,0,0,1,96.8,5a6.53,6.53,0,0,1,.62,2.82A6.52,6.52,0,0,1,97,10.4a5.42,5.42,0,0,1-1.29,1.82,6.49,6.49,0,0,1-2,1.24,16.41,16.41,0,0,1-2.51.84,22.85,22.85,0,0,1,2.69.64,8,8,0,0,1,2.37,1.17A5.86,5.86,0,0,1,98,18,5.79,5.79,0,0,1,98.63,20.91ZM88.13,9A2.56,2.56,0,0,0,87,6.63a7.08,7.08,0,0,0-3.64-.72H78.22v6.21h5.13a6.8,6.8,0,0,0,3.7-.75A2.73,2.73,0,0,0,88.13,9ZM89.3,20.32a3,3,0,0,0-.39-1.59,2.94,2.94,0,0,0-1-1,4.67,4.67,0,0,0-1.53-.51,12.21,12.21,0,0,0-1.85-.13H78.22v6.53h6.26A7.3,7.3,0,0,0,88,22.91,2.71,2.71,0,0,0,89.3,20.32Z"/><path class="cls-1" d="M103.41,28.8V.74h9.17V22.81h15.07v6Z"/><path class="cls-1" d="M131.62,28.8V.74h9.17V28.8Z"/><path class="cls-1" d="M173,27.34a14.38,14.38,0,0,1-4.93,1.71,34.08,34.08,0,0,1-5.81.48,27.49,27.49,0,0,1-7.15-.83,13.42,13.42,0,0,1-5.23-2.62,11.23,11.23,0,0,1-3.2-4.57,18.3,18.3,0,0,1-1.09-6.7,16.74,16.74,0,0,1,1.09-6.22,12.15,12.15,0,0,1,3.2-4.67A14.36,14.36,0,0,1,155.19,1a24.21,24.21,0,0,1,7.32-1,29.27,29.27,0,0,1,5.56.53A15.2,15.2,0,0,1,173,2.27a12.21,12.21,0,0,1,5.54,8.07h-9.44a5.51,5.51,0,0,0-2.55-3.5,6.9,6.9,0,0,0-4-1,7.87,7.87,0,0,0-3.42.68,6.19,6.19,0,0,0-2.29,1.88,7.75,7.75,0,0,0-1.3,2.83,14.45,14.45,0,0,0-.41,3.49,18.18,18.18,0,0,0,.35,3.68,7.6,7.6,0,0,0,1.19,2.87,5.43,5.43,0,0,0,2.23,1.86,8.09,8.09,0,0,0,3.46.66,7.44,7.44,0,0,0,4.23-1.1A5.35,5.35,0,0,0,169.12,19h9.49C178.58,21,176.69,25.14,173,27.34Z"/><path class="cls-1" d="M223.91,28.8l-2.49-5.33H205.61L203,28.8s-2.38-.21-4.58-.21-4.67.21-4.67.21L208.48.74h11.16L234.13,28.8a34.06,34.06,0,0,0-5-.21A38,38,0,0,0,223.91,28.8ZM213.61,6.65,208.17,18h10.69Z"/><path class="cls-1" d="M259.64,28.8a2.9,2.9,0,0,1-1.87-2.55c-.08-.72-.12-.86-.2-1.46s-.16-1.16-.23-1.71-.15-1-.22-1.43-.11-.73-.13-.94a3.51,3.51,0,0,0-.45-1.16,2,2,0,0,0-.85-.76,4.51,4.51,0,0,0-1.47-.43,29.41,29.41,0,0,0-3-.13h-5V28.8h-9.17V.74H255q5.25,0,8.16,1.9a6.41,6.41,0,0,1,2.91,5.75A6.05,6.05,0,0,1,264,13.12a8.54,8.54,0,0,1-2.24,1.36,11.22,11.22,0,0,1-2.66.71,20.92,20.92,0,0,1,2.56.49,5.83,5.83,0,0,1,1.85.82,3.89,3.89,0,0,1,1.2,1.32,6.43,6.43,0,0,1,.68,2c.08.36.17.83.26,1.4s.19,1.17.31,1.81.22,1.25.33,1.84.19,1.09.27,1.48a2.44,2.44,0,0,0,1.68,2l-.11.48ZM257,9.44a2.71,2.71,0,0,0-1.22-2.54,7,7,0,0,0-3.54-.72h-6V12.9h6a5.76,5.76,0,0,0,3.7-.91A3.18,3.18,0,0,0,257,9.44Z"/><path class="cls-1" d="M287.91,6.68V28.8h-9.17V6.68H268.33V.74h30V6.68Z"/><path class="cls-1" d="M346,24.09a10,10,0,0,1-3.48,3.25,15.53,15.53,0,0,1-4.93,1.71,34.17,34.17,0,0,1-5.81.48,27.49,27.49,0,0,1-7.15-.83,13.35,13.35,0,0,1-5.23-2.62,11.35,11.35,0,0,1-3.21-4.57,18.52,18.52,0,0,1-1.08-6.7,16.94,16.94,0,0,1,1.08-6.22,12.28,12.28,0,0,1,3.21-4.67A14.31,14.31,0,0,1,324.65,1,24.32,24.32,0,0,1,332,0a29.35,29.35,0,0,1,5.56.53,16,16,0,0,1,4.87,1.74,10,10,0,0,1,3.48,3.2,8.62,8.62,0,0,1,1.32,4.87h-9.44A4.76,4.76,0,0,0,336,6.84a6.87,6.87,0,0,0-4-1,7.81,7.81,0,0,0-3.42.68,6.11,6.11,0,0,0-2.29,1.88,7.75,7.75,0,0,0-1.3,2.83,14,14,0,0,0-.41,3.49,18.18,18.18,0,0,0,.35,3.68,7.75,7.75,0,0,0,1.18,2.87,5.52,5.52,0,0,0,2.24,1.86,8.06,8.06,0,0,0,3.46.66,7.46,7.46,0,0,0,4.23-1.1A4.69,4.69,0,0,0,337.85,19h9.48A9.43,9.43,0,0,1,346,24.09Z"/><path class="cls-1" d="M384.79,14.77A16.09,16.09,0,0,1,383.66,21a12.42,12.42,0,0,1-3.32,4.64,14.77,14.77,0,0,1-5.42,2.93,24.48,24.48,0,0,1-7.38,1,25.8,25.8,0,0,1-8-1.07,13.7,13.7,0,0,1-5.34-3,11.34,11.34,0,0,1-3-4.68,18.12,18.12,0,0,1-.94-6,16.2,16.2,0,0,1,1.13-6.2,12.22,12.22,0,0,1,3.32-4.65A15.2,15.2,0,0,1,360.13,1a24.82,24.82,0,0,1,7.41-1,25.51,25.51,0,0,1,7.85,1.07,14.16,14.16,0,0,1,5.36,3,11.75,11.75,0,0,1,3.07,4.68A17.67,17.67,0,0,1,384.79,14.77Zm-9.4,0a15.13,15.13,0,0,0-.41-3.62,7.36,7.36,0,0,0-1.34-2.83,6.4,6.4,0,0,0-2.43-1.85,8.91,8.91,0,0,0-3.67-.68,8.6,8.6,0,0,0-3.56.68,6.47,6.47,0,0,0-2.45,1.87,7.92,7.92,0,0,0-1.4,2.85,13.93,13.93,0,0,0-.44,3.58,15,15,0,0,0,.4,3.58,7.84,7.84,0,0,0,1.33,2.84,6.06,6.06,0,0,0,2.41,1.88,9,9,0,0,0,3.71.67,8.81,8.81,0,0,0,3.63-.67,6.27,6.27,0,0,0,2.43-1.88A7.89,7.89,0,0,0,375,18.35,14.46,14.46,0,0,0,375.39,14.77Z"/><path class="cls-1" d="M389.76,28.8V22.69H398V28.8Z"/></g></g></svg>