<svg xmlns="http://www.w3.org/2000/svg" viewBox="0 0 411.14 30.51"><defs><style>.cls-1{fill:#fff;}</style></defs><title>Asset 1</title><g id="Layer_2" data-name="Layer 2"><g id="Layer_1-2" data-name="Layer 1"><path class="cls-1" d="M29,10.16q0,4.65-2.91,7.1c-1.95,1.64-5,2.45-9.1,2.45H9.47v10H0V.76H17a19.36,19.36,0,0,1,4.76.56A11.45,11.45,0,0,1,25.53,3,8.06,8.06,0,0,1,28.06,6,9,9,0,0,1,29,10.16Zm-9.64,0A3.2,3.2,0,0,0,18,7.26a6.31,6.31,0,0,0-3.54-.88h-5v7.71h5a6,6,0,0,0,3.64-.93A3.54,3.54,0,0,0,19.35,10.16Z"/><path class="cls-1" d="M64.09,23.2a10.54,10.54,0,0,1-3.25,4.24,13.38,13.38,0,0,1-5.08,2.35,28.15,28.15,0,0,1-6.62.72,33.22,33.22,0,0,1-6.68-.62,13.69,13.69,0,0,1-5.1-2.09,9.42,9.42,0,0,1-3.24-3.93A15,15,0,0,1,33,17.66V.76h9.35v17a11.82,11.82,0,0,0,.45,3.52,5.63,5.63,0,0,0,1.3,2.31,4.9,4.9,0,0,0,2.13,1.27,9.87,9.87,0,0,0,2.91.38c2.49,0,4.24-.67,5.26-2S55.92,19.8,55.92,17V.76h9.32V16.82A15.69,15.69,0,0,1,64.09,23.2Z"/><path class="cls-1" d="M101.89,21.6a7,7,0,0,1-3,5.92q-3,2.24-9.09,2.23H71.58V.76H89a22.15,22.15,0,0,1,5.34.56A11.24,11.24,0,0,1,98,2.85a5.83,5.83,0,0,1,2,2.31,6.67,6.67,0,0,1,.65,2.91,6.71,6.71,0,0,1-.48,2.67,5.82,5.82,0,0,1-1.33,1.89,6.82,6.82,0,0,1-2,1.28,17.47,17.47,0,0,1-2.59.86,21.91,21.91,0,0,1,2.77.67,8.35,8.35,0,0,1,2.45,1.2,6.17,6.17,0,0,1,1.77,2A6,6,0,0,1,101.89,21.6ZM91.05,9.27a2.65,2.65,0,0,0-1.18-2.43,7.35,7.35,0,0,0-3.76-.74h-5.3v6.43h5.3a6.86,6.86,0,0,0,3.82-.79A2.79,2.79,0,0,0,91.05,9.27ZM92.26,21a3.15,3.15,0,0,0-.4-1.65,2.89,2.89,0,0,0-1.09-1,4.67,4.67,0,0,0-1.58-.53,13,13,0,0,0-1.91-.14H80.81v6.75h6.47a7.56,7.56,0,0,0,3.65-.74A2.79,2.79,0,0,0,92.26,21Z"/><path class="cls-1" d="M106.83,29.75V.76h9.47V23.57h15.58v6.18Z"/><path class="cls-1" d="M136,29.75V.76h9.47v29Z"/><path class="cls-1" d="M178.75,28.24a14.6,14.6,0,0,1-5.1,1.77,35.2,35.2,0,0,1-6,.5,28.9,28.9,0,0,1-7.39-.86,13.88,13.88,0,0,1-5.4-2.71,11.67,11.67,0,0,1-3.31-4.72,19,19,0,0,1-1.12-6.92,17.38,17.38,0,0,1,1.12-6.43,12.76,12.76,0,0,1,3.31-4.82,14.8,14.8,0,0,1,5.47-3,25.07,25.07,0,0,1,7.56-1,29.48,29.48,0,0,1,5.74.55,15.69,15.69,0,0,1,5,1.79,12.6,12.6,0,0,1,5.73,8.34h-9.76A5.61,5.61,0,0,0,172,7.07,7.07,7.07,0,0,0,167.85,6a8.13,8.13,0,0,0-3.53.7,6.45,6.45,0,0,0-2.37,2,8,8,0,0,0-1.34,2.92,14.82,14.82,0,0,0-.43,3.61,17.94,17.94,0,0,0,.37,3.8,8,8,0,0,0,1.22,3,5.88,5.88,0,0,0,2.31,1.92,8.39,8.39,0,0,0,3.57.68A7.7,7.7,0,0,0,172,23.39a5.55,5.55,0,0,0,2.69-3.8h9.8C184.49,21.73,182.54,26,178.75,28.24Z"/><path class="cls-1" d="M231.32,29.75l-2.57-5.5H212.41l-2.65,5.5h-9.55l15.17-29h11.53l15,29ZM220.68,6.87l-5.62,11.76h11Z"/><path class="cls-1" d="M269.77,29.75c-2-.81-2.58-1.64-2.84-3.51-.11-.75-.27-1.83-.35-2.39s-.15-1.06-.22-1.49-.11-.75-.14-1a4.07,4.07,0,0,0-.46-1.21,2.17,2.17,0,0,0-.88-.78,4.83,4.83,0,0,0-1.52-.44,31.1,31.1,0,0,0-3.11-.14h-5.84V29.75h-9.48V.76h19.23q5.43,0,8.43,2c2,1.31,3,4,3,6.6,0,4-2.64,6.09-8.68,6.09-.17,0-.13.3,0,.3a13.5,13.5,0,0,1,6,1.32,4.07,4.07,0,0,1,1.24,1.37,6.79,6.79,0,0,1,.7,2c.08.37.17.85.26,1.44s.2,1.21.33,1.87.29,2.13.37,2.53a2.83,2.83,0,0,0,2.4,2.18c0,.05-.56,1.29-.53,1.29Zm-4.28-20a2.79,2.79,0,0,0-1.26-2.63,7.25,7.25,0,0,0-3.66-.75h-6.16v7h6.16a6,6,0,0,0,3.82-.94A3.3,3.3,0,0,0,265.49,9.76Z"/><path class="cls-1" d="M297.44,6.91V29.75H288V6.91H277.21V.76h31V6.91Z"/><path class="cls-1" d="M357.42,24.89a10.22,10.22,0,0,1-3.59,3.35,15.55,15.55,0,0,1-5.1,1.77,35.2,35.2,0,0,1-6,.5,28.85,28.85,0,0,1-7.39-.86,13.88,13.88,0,0,1-5.4-2.71,11.58,11.58,0,0,1-3.31-4.72,19,19,0,0,1-1.12-6.92,17.38,17.38,0,0,1,1.12-6.43,12.64,12.64,0,0,1,3.31-4.82,14.84,14.84,0,0,1,5.46-3A25.14,25.14,0,0,1,343,0a29.55,29.55,0,0,1,5.74.55,16.82,16.82,0,0,1,5,1.79,10.3,10.3,0,0,1,3.59,3.31,8.9,8.9,0,0,1,1.37,5H349a4.87,4.87,0,0,0-1.86-3.61A7.09,7.09,0,0,0,342.93,6a8.13,8.13,0,0,0-3.53.7,6.29,6.29,0,0,0-2.37,2,8,8,0,0,0-1.35,2.92,14.83,14.83,0,0,0-.42,3.61,18.65,18.65,0,0,0,.36,3.8,8,8,0,0,0,1.23,3,5.75,5.75,0,0,0,2.31,1.92,8.39,8.39,0,0,0,3.57.68,7.7,7.7,0,0,0,4.38-1.14,4.84,4.84,0,0,0,1.92-3.8h9.8A9.76,9.76,0,0,1,357.42,24.89Z"/><path class="cls-1" d="M397.53,15.26a16.64,16.64,0,0,1-1.16,6.38,13,13,0,0,1-3.44,4.8,15.44,15.44,0,0,1-5.6,3,25.69,25.69,0,0,1-7.63,1,27.15,27.15,0,0,1-8.25-1.1,14.35,14.35,0,0,1-5.52-3.13,12,12,0,0,1-3.09-4.84,19,19,0,0,1-1-6.18A16.84,16.84,0,0,1,363,8.85a12.7,12.7,0,0,1,3.44-4.8,15.56,15.56,0,0,1,5.58-3,25.57,25.57,0,0,1,7.64-1,26.37,26.37,0,0,1,8.11,1.1,14.54,14.54,0,0,1,5.54,3.14,12.07,12.07,0,0,1,3.18,4.83A18.56,18.56,0,0,1,397.53,15.26Zm-9.72,0a15.57,15.57,0,0,0-.42-3.74A7.6,7.6,0,0,0,386,8.6a6.66,6.66,0,0,0-2.51-1.92,9.31,9.31,0,0,0-3.8-.7,9,9,0,0,0-3.67.7,6.73,6.73,0,0,0-2.53,1.94,8.08,8.08,0,0,0-1.44,2.94,13.93,13.93,0,0,0-.47,3.7A15.31,15.31,0,0,0,372,19a7.81,7.81,0,0,0,1.36,2.94,6.36,6.36,0,0,0,2.49,1.94,9.23,9.23,0,0,0,3.83.7,9,9,0,0,0,3.76-.7A6.51,6.51,0,0,0,386,21.89a7.87,7.87,0,0,0,1.4-2.94A14.36,14.36,0,0,0,387.81,15.26Z"/><path class="cls-1" d="M402.67,29.75v-6.3h8.47v6.3Z"/></g></g></svg>